HIERARCHY
ROOT root
{
	OFFSET 0.000000 0.000000 0.000000
	CHANNELS 6 Xposition Yposition Zposition Zrotation Yrotation Xrotation
	JOINT lhip
	{
		OFFSET 0.058581 -0.082280 -0.017664
		CHANNELS 3 Zrotation Yrotation Xrotation
		JOINT lknee
		{
			OFFSET 0.043451 -0.386469 0.008037
			CHANNELS 3 Zrotation Yrotation Xrotation
			JOINT lankle
			{
				OFFSET -0.014790 -0.426874 -0.037428
				CHANNELS 3 Zrotation Yrotation Xrotation
				JOINT ltoe
				{
					OFFSET 0.041054 -0.060286 0.122042
					CHANNELS 3 Zrotation Yrotation Xrotation
					End Site
					{
						OFFSET 0.000000 0.000000 0.000000
					}
				}
			}
		}
	}
	JOINT rhip
	{
		OFFSET -0.060310 -0.090513 -0.013543
		CHANNELS 3 Zrotation Yrotation Xrotation
		JOINT rknee
		{
			OFFSET -0.043257 -0.383688 -0.004843
			CHANNELS 3 Zrotation Yrotation Xrotation
			JOINT rankle
			{
				OFFSET 0.019056 -0.420046 -0.034562
				CHANNELS 3 Zrotation Yrotation Xrotation
				JOINT rtoe
				{
					OFFSET -0.034840 -0.062106 0.130323
					CHANNELS 3 Zrotation Yrotation Xrotation
					End Site
					{
						OFFSET 0.000000 0.000000 0.000000
					}
				}
			}
		}
	}
	JOINT lowerback
	{
		OFFSET 0.004439 0.124404 -0.038385
		CHANNELS 3 Zrotation Yrotation Xrotation
		JOINT upperback
		{
			OFFSET 0.004488 0.137956 0.026820
			CHANNELS 3 Zrotation Yrotation Xrotation
			JOINT chest
			{
				OFFSET -0.002265 0.056032 0.002855
				CHANNELS 3 Zrotation Yrotation Xrotation
				JOINT lowerneck
				{
					OFFSET -0.013390 0.211636 -0.033468
					CHANNELS 3 Zrotation Yrotation Xrotation
					JOINT upperneck
					{
						OFFSET 0.010113 0.088937 0.050410
						CHANNELS 3 Zrotation Yrotation Xrotation
						End Site
						{
							OFFSET 0.000000 0.000000 0.000000
						}
					}
				}
				JOINT lclavicle
				{
					OFFSET 0.071702 0.114000 -0.018898
					CHANNELS 3 Zrotation Yrotation Xrotation
					JOINT lshoulder
					{
						OFFSET 0.122921 0.045205 -0.019046
						CHANNELS 3 Zrotation Yrotation Xrotation
						JOINT lelbow
						{
							OFFSET 0.255332 -0.015649 -0.022946
							CHANNELS 3 Zrotation Yrotation Xrotation
							JOINT lwrist
							{
								OFFSET 0.265709 0.012698 -0.007375
								CHANNELS 3 Zrotation Yrotation Xrotation
								End Site
								{
									OFFSET 0.000000 0.000000 0.000000
								}
							}
						}
					}
				}
				JOINT rclavicle
				{
					OFFSET -0.082954 0.112472 -0.023707
					CHANNELS 3 Zrotation Yrotation Xrotation
					JOINT rshoulder
					{
						OFFSET -0.113228 0.046853 -0.008472
						CHANNELS 3 Zrotation Yrotation Xrotation
						JOINT relbow
						{
							OFFSET -0.260127 -0.014369 -0.031269
							CHANNELS 3 Zrotation Yrotation Xrotation
							JOINT rwrist
							{
								OFFSET -0.269108 0.006794 -0.006027
								CHANNELS 3 Zrotation Yrotation Xrotation
								End Site
								{
									OFFSET 0.000000 0.000000 0.000000
								}
							}
						}
					}
				}
			}
		}
	}
}
MOTION
Frames: 5
Frame Time: 0.033333
-0.115900 -1.146100 0.892689 98.734064 -6.713648 103.784703 13.857390 6.325957 -42.035352 -4.598362 17.374112 76.893493 4.537427 7.709110 -21.633209 0.000000 -0.000000 0.000000 -5.076465 -5.665219 -9.717052 9.013643 2.040840 51.090245 -2.293929 0.653057 -33.513798 0.000000 -0.000000 0.000000 -6.161860 9.521622 27.066337 -3.368873 -2.527279 3.683060 -1.927133 1.072917 -1.348526 -4.111436 2.948541 -16.202973 4.546379 -0.972492 -8.866403 -28.791633 -12.244326 -0.992139 -26.880708 -4.342029 -0.753622 30.166929 -46.542162 -29.529058 18.895457 -3.146646 -11.479236 26.615194 17.178511 3.818042 52.202105 7.805862 11.444038 -30.207613 50.145400 -29.297094 -11.943552 2.537241 -14.395880 
0.003947 -1.124895 0.900991 96.861810 -6.899769 106.285378 16.819789 3.050109 -51.915197 -7.762189 15.329751 56.629352 2.781808 4.779062 -18.568754 0.000000 -0.000000 0.000000 -8.031442 -7.526385 0.238555 8.081042 7.084865 39.926801 4.966847 8.262048 -18.942864 0.000000 -0.000000 0.000000 -8.433104 14.090938 23.870345 -3.977434 -2.347015 0.946353 -1.666301 2.595801 -0.090202 -4.864429 -0.375645 -11.404929 6.788384 -5.156542 -5.790759 -28.294576 -3.455601 -1.500840 -32.545419 -2.245122 -0.882007 45.454981 -52.564725 -47.706750 18.849597 -1.477197 -22.184132 26.380679 10.303979 3.805408 55.686437 3.932438 12.547425 -29.899281 53.742393 -24.074788 -11.491488 3.933443 -4.931003 
0.102933 -1.106646 0.903270 96.979939 -7.090273 107.566281 18.748297 -1.230393 -56.461394 -9.526336 9.618841 40.324511 -3.687500 1.094424 -11.214076 0.000000 -0.000000 0.000000 -8.392212 -6.956146 8.154221 3.704623 9.360783 30.584708 11.697243 11.436913 -4.898937 0.000000 -0.000000 0.000000 -9.788845 17.116547 20.878223 -4.509260 -1.985738 1.567824 -1.114789 3.424274 -0.605322 -5.607335 -4.064787 -5.852440 10.210770 -8.669583 -8.317941 -27.837925 2.517179 0.250003 -37.901477 0.788592 -1.160706 60.024532 -53.874494 -60.734567 12.817641 -2.688229 -28.559991 24.913846 5.824681 5.075643 58.147922 -0.859477 11.962538 -26.861020 58.513146 -20.277508 -10.744433 3.604020 -9.117419 
0.204524 -1.086148 0.891476 97.746772 -7.659963 105.268871 17.498953 -3.835323 -56.465657 -10.469887 7.155992 33.015742 -7.070828 -0.388170 -8.018938 0.000000 -0.000000 0.000000 -7.067144 -6.017690 16.535239 -0.791366 8.782931 29.379915 10.087993 5.628807 -4.581720 0.000000 -0.000000 0.000000 -10.407818 19.048962 20.258231 -4.796256 -1.274071 3.332623 -0.700577 4.220060 0.165433 -5.589815 -7.125887 -3.591991 12.520391 -11.774628 -10.022409 -26.735417 7.965933 1.328192 -42.001445 4.789264 -1.249762 67.710766 -56.387756 -70.626945 10.235997 -3.045296 -37.377500 23.584160 2.856674 5.219879 59.942557 -5.552194 12.361201 -25.275574 62.431984 -20.823326 -11.124751 2.968041 -12.176700 
0.300516 -1.065785 0.870887 98.153297 -7.440598 102.327402 14.770263 -5.468468 -55.677363 -7.987874 8.643717 40.632518 1.362584 -0.212039 -11.741982 0.000000 -0.000000 0.000000 -6.783541 -7.094212 19.641276 -2.063656 4.120397 39.152004 5.049443 -1.884788 -6.658716 0.000000 -0.000000 0.000000 -9.922192 19.561730 21.601269 -4.953616 0.571124 4.216880 -0.730849 4.836641 1.233545 -3.964056 -11.409067 -4.620793 13.293586 -12.757357 -10.036456 -26.846290 11.364517 3.326086 -45.583270 8.241404 -1.443452 76.127134 -58.982387 -79.338893 9.803367 -2.485244 -43.545487 23.087954 1.338733 5.307179 60.783169 -9.404671 12.637723 -27.773636 64.726330 -24.850330 -10.503268 3.294777 -11.483999 
